<?xml version="1.0" encoding="UTF-8" standalone="no"?>
<svg width="73px" height="80px" viewBox="0 0 73 80" version="1.1" xmlns="http://www.w3.org/2000/svg" xmlns:xlink="http://www.w3.org/1999/xlink" xmlns:sketch="http://www.bohemiancoding.com/sketch/ns">
    <!-- Generator: Sketch 3.3.3 (12072) - http://www.bohemiancoding.com/sketch -->
    <title>Shape + Shape + Shape</title>
    <desc>Created with Sketch.</desc>
    <defs></defs>
    <g id="Page-1" stroke="none" stroke-width="1" fill="none" fill-rule="evenodd" sketch:type="MSPage">
        <g id="Shape-+-Shape-+-Shape" sketch:type="MSLayerGroup" fill="#FFFFFF">
            <path d="M20,32.7092975 C20,31.7276724 20.7957153,30.9319571 21.7773404,30.9319571 L31.8052728,30.9319571 C32.7868979,30.9319571 33.5826132,31.7276724 33.5826132,32.7092975 C33.5826132,33.6909226 32.7868979,34.4866379 31.8052728,34.4866379 L21.7773404,34.4866379 C20.7957153,34.4866379 20,33.6909226 20,32.7092975 L20,32.7092975 Z M21.7773404,42.4558769 L31.8052728,42.4558769 C32.7868979,42.4558769 33.5826132,41.6601616 33.5826132,40.6785365 C33.5826132,39.6969113 32.7868979,38.901196 31.8052728,38.901196 L21.7773404,38.901196 C20.7957153,38.901196 20,39.6969113 20,40.6785365 C20,41.6601616 20.7957153,42.4558769 21.7773404,42.4558769 L21.7773404,42.4558769 Z M27.5003766,14.1008987 C27.5003766,10.6798739 31.1298835,8 35.7632322,8 C40.3964032,8 44.0257323,10.6798739 44.0257323,14.1008987 C44.0257323,17.5219236 40.3964032,20.2017975 35.7632322,20.2017975 C31.1298835,20.2017975 27.5003766,17.5219236 27.5003766,14.1008987 L27.5003766,14.1008987 Z M31.0550574,14.1008987 C31.0550574,15.3027363 33.0686064,16.6471166 35.7632322,16.6471166 C38.4576803,16.6471166 40.4710515,15.3029141 40.4710515,14.1008987 C40.4710515,12.8988834 38.4576803,11.5546808 35.7632322,11.5546808 C33.0684286,11.5546808 31.0550574,12.8990611 31.0550574,14.1008987 L31.0550574,14.1008987 Z M21.7773404,28.5286373 L31.8052728,28.5286373 C32.7868979,28.5286373 33.5826132,27.732922 33.5826132,26.7512969 C33.5826132,25.7696718 32.7868979,24.9739565 31.8052728,24.9739565 L21.7773404,24.9739565 C20.7957153,24.9739565 20,25.7696718 20,26.7512969 C20,27.732922 20.7957153,28.5286373 21.7773404,28.5286373 L21.7773404,28.5286373 Z M49.7493017,56.195607 L43.9164259,56.195607 C42.9349785,56.195607 42.1390855,56.9913223 42.1390855,57.9729474 C42.1390855,58.9545725 42.9349785,59.7502878 43.9164259,59.7502878 L49.7493017,59.7502878 C50.7307491,59.7502878 51.5266421,58.9545725 51.5266421,57.9729474 C51.5266421,56.9913223 50.7307491,56.195607 49.7493017,56.195607 L49.7493017,56.195607 Z M49.7493017,30.9319571 L43.9164259,30.9319571 C42.9349785,30.9319571 42.1390855,31.7276724 42.1390855,32.7092975 C42.1390855,33.6909226 42.9349785,34.4866379 43.9164259,34.4866379 L49.7493017,34.4866379 C50.7307491,34.4866379 51.5266421,33.6909226 51.5266421,32.7092975 C51.5266421,31.7276724 50.7307491,30.9319571 49.7493017,30.9319571 L49.7493017,30.9319571 Z M49.7493017,38.901196 L43.9164259,38.901196 C42.9349785,38.901196 42.1390855,39.6969113 42.1390855,40.6785365 C42.1390855,41.6601616 42.9349785,42.4558769 43.9164259,42.4558769 L49.7493017,42.4558769 C50.7307491,42.4558769 51.5266421,41.6601616 51.5266421,40.6785365 C51.5266421,39.6969113 50.7307491,38.901196 49.7493017,38.901196 L49.7493017,38.901196 Z M49.7493017,47.5484904 L21.7773404,47.5484904 C20.7957153,47.5484904 20,48.3442057 20,49.3258308 C20,50.3074559 20.7957153,51.1031712 21.7773404,51.1031712 L49.7493017,51.1031712 C50.7307491,51.1031712 51.5266421,50.3074559 51.5266421,49.3258308 C51.5266421,48.3442057 50.7307491,47.5484904 49.7493017,47.5484904 L49.7493017,47.5484904 Z" id="Shape" sketch:type="MSShapeGroup"></path>
            <path d="M10,76.4097627 L10,79.7195239 L12.4888114,77.5377042 L19.4003906,71.265625 L25.8000169,77.6169062 L26.8606771,78.6775663 L27.9213373,77.6169062 L34.40625,71.265625 L41.9198036,77.851854 L42.9765658,78.7859098 L43.9738637,77.7886118 L51.354248,70.4223633 L59.0932466,77.2163258 L61.5879651,79.4265903 L61.5879651,76.0935903 L61.5879651,1.67909238 L61.5879651,0.184445841 L60.0933281,0.179101967 L11.505363,0.0053822233 L10,0 L10,1.50537264 L10,76.4097627 Z M11.494637,3.00536305 L60.082602,3.17908279 L58.5879651,1.67909238 L58.5879632,72.7722183 L51.2555775,66.2642609 L42.8994142,74.5900894 L34.2377248,67.2487732 L26.8579103,74.2553726 L19.6745238,67.2487732 L13.0000001,73.1804215 L13,1.50537264 L11.494637,3.00536305 Z" id="Shape" sketch:type="MSShapeGroup"></path>
            <path d="M1.5,3 L70.5072479,3 L72.0072479,3 L72.0072479,0 L70.5072479,0 L1.5,0 L0,0 L0,3 L1.5,3 L1.5,3 Z" id="Shape" sketch:type="MSShapeGroup"></path>
        </g>
    </g>
</svg>