<?xml version="1.0" encoding="UTF-8" standalone="no"?>
<svg width="99px" height="99px" viewBox="0 0 99 99" version="1.1" xmlns="http://www.w3.org/2000/svg" xmlns:xlink="http://www.w3.org/1999/xlink" xmlns:sketch="http://www.bohemiancoding.com/sketch/ns">
    <!-- Generator: Sketch 3.3.3 (12072) - http://www.bohemiancoding.com/sketch -->
    <title>Group</title>
    <desc>Created with Sketch.</desc>
    <defs></defs>
    <g id="Page-1" stroke="none" stroke-width="1" fill="none" fill-rule="evenodd" sketch:type="MSPage">
        <g id="Group" sketch:type="MSLayerGroup" transform="translate(2.000000, 2.000000)" stroke="#FFFFFF" stroke-width="3">
            <path d="M65.9938766,27.0667299 L19.4153027,48.7084703 C19.1645392,48.8250243 19.0030572,49.0752137 19.0000429,49.3516708 C18.9970285,49.628128 19.1531995,49.8817623 19.4015229,50.0036273 L29.3792448,54.704834 C29.6209654,54.8235412 30.3453175,54.7642719 30.3611069,54.9695334 L31.3628692,68.0156968 C31.3851178,68.3047854 32.0036296,68.6784187 32.0784137,68.6784187 C32.2835316,68.6784187 32.4830516,68.590429 32.6218543,68.4296647 L39.6182575,60.3222656 L53.7891419,67.2138721 C53.9768916,67.3035843 54.1942104,67.3073163 54.3849745,67.2243505 C54.5757385,67.1412411 54.7210005,66.9796156 54.7832966,66.781244 L66.9809979,27.9327038 C67.0662603,27.6614141 66.983151,27.3655792 66.7695642,27.1781166 C66.5558338,26.990654 66.2516736,26.9471615 65.9938766,27.0667299 Z" id="Shape" sketch:type="MSShapeGroup"></path>
            <path d="M66.2587891,30 L41,59.0473633" id="Line" stroke-linecap="square" sketch:type="MSShapeGroup"></path>
            <path d="M65.5,28.5 L30.5,54.5" id="Line" stroke-linecap="square" sketch:type="MSShapeGroup"></path>
            <circle id="Oval-98-Copy" sketch:type="MSShapeGroup" cx="47.5" cy="47.5" r="47.5"></circle>
        </g>
    </g>
</svg>