<?xml version="1.0" encoding="UTF-8" standalone="no"?>
<svg width="80px" height="94px" viewBox="0 0 80 94" version="1.1" xmlns="http://www.w3.org/2000/svg" xmlns:xlink="http://www.w3.org/1999/xlink" xmlns:sketch="http://www.bohemiancoding.com/sketch/ns">
    <!-- Generator: Sketch 3.3.3 (12072) - http://www.bohemiancoding.com/sketch -->
    <title>Group Copy 19</title>
    <desc>Created with Sketch.</desc>
    <defs>
        <path id="path-1" d="M19.2285156,50.0507812 L0.565429688,63.5761719 L0.565429688,91.8231393"></path>
    </defs>
    <g id="Page-1" stroke="none" stroke-width="1" fill="none" fill-rule="evenodd" sketch:type="MSPage">
        <g id="Group-Copy-19" sketch:type="MSLayerGroup" transform="translate(1.000000, 0.000000)">
            <circle id="Oval-96" fill="#FFFFFF" sketch:type="MSShapeGroup" cx="24" cy="69" r="2"></circle>
            <circle id="Oval-96-Copy" fill="#FFFFFF" sketch:type="MSShapeGroup" cx="24" cy="81" r="2"></circle>
            <circle id="Oval-96-Copy-2" fill="#FFFFFF" sketch:type="MSShapeGroup" cx="42" cy="69" r="2"></circle>
            <g id="Path-119">
                <use stroke="#FFFFFF" stroke-width="3" stroke-linecap="round" sketch:type="MSShapeGroup" xlink:href="#path-1"></use>
                <use stroke="none" xlink:href="#path-1"></use>
            </g>
            <path d="M11.5,71.1352539 L11.5,91.8779297" id="Path-120" stroke="#FFFFFF" stroke-width="3" stroke-linecap="round" sketch:type="MSShapeGroup"></path>
            <path d="M28.6435547,48.7763672 C28.6435547,48.7763672 27.7597657,55.8081055 33.9335937,55.8081055 C40.1074218,55.8081055 39.0019531,48.4414062 39.0019531,48.4414062" id="Path-121" stroke="#FFFFFF" stroke-width="3" stroke-linecap="round" sketch:type="MSShapeGroup"></path>
            <path d="M14,7.5 L14,7.5 C14,9.98117684 16.0145752,12 18.4900284,12 L46.5099716,12 C48.9871761,12 51,9.9850218 51,7.5 C51,5.01882316 48.9854248,3 46.5099716,3 L18.4900284,3 C16.0128239,3 14,5.0149782 14,7.5 L14,7.5 Z M11,7.5 C11,3.35786438 14.3562273,0 18.4900284,0 L46.5099716,0 C50.6466001,0 54,3.36629279 54,7.5 C54,11.6421356 50.6437727,15 46.5099716,15 L18.4900284,15 C14.3533999,15 11,11.6337072 11,7.5 L11,7.5 Z" id="Shape" fill="#FFFFFF" sketch:type="MSShapeGroup"></path>
            <path d="M19,15 L19,15 L22,12 L22,23 L19,20 L46,20 L43,23 L43,12 L46,15 L19,15 Z M19,12 L46,12 L46,23 L19,23 L19,12 L19,12 Z" id="Shape" fill="#FFFFFF" sketch:type="MSShapeGroup"></path>
            <path d="M33.5,56.2089844 L33.5,67.8480703" id="Path-122" stroke="#FFFFFF" stroke-width="3" stroke-linecap="round" sketch:type="MSShapeGroup"></path>
            <path d="M46.2666016,49.2900391 L65.4150391,63.6640625 L65.4150391,73.3826676" id="Path-123" stroke="#FFFFFF" stroke-width="3" stroke-linecap="round" sketch:type="MSShapeGroup"></path>
            <path d="M77.0323556,90.5 L35.6825407,90.5" id="Path-124" stroke="#FFFFFF" stroke-width="3" stroke-linecap="round" sketch:type="MSShapeGroup"></path>
            <path d="M41.112793,89.5249023 C41.112793,89.5249023 38.8076172,71.6625977 56.1538086,71.6625977 C73.5,71.6625977 72.5883789,89.1445312 72.5883789,89.1445312" id="Path-125" stroke="#FFFFFF" stroke-width="3" sketch:type="MSShapeGroup"></path>
            <path d="M56.5,68 L56.5,70.9682617" id="Path-126" stroke="#FFFFFF" stroke-width="3" stroke-linecap="round" sketch:type="MSShapeGroup"></path>
            <path d="M20.3999939,21.5 L44.5883609,21.5 L44.5883609,32.0310822 C44.5883609,32.0310822 45.2989197,44 32.7864685,44 C20.2740173,44 20.4329529,32.0485051 20.4329529,32.0485051 L20.3999939,21.5 Z" id="Path-Copy" stroke="#FFFFFF" stroke-width="2.8" sketch:type="MSShapeGroup"></path>
        </g>
    </g>
</svg>