<?xml version="1.0" encoding="UTF-8" standalone="no"?>
<svg width="87px" height="72px" viewBox="0 0 87 72" version="1.1" xmlns="http://www.w3.org/2000/svg" xmlns:xlink="http://www.w3.org/1999/xlink" xmlns:sketch="http://www.bohemiancoding.com/sketch/ns">
    <!-- Generator: Sketch 3.3.3 (12072) - http://www.bohemiancoding.com/sketch -->
    <title>bell-covering-hot-dish copy 2</title>
    <desc>Created with Sketch.</desc>
    <defs></defs>
    <g id="Page-1" stroke="none" stroke-width="1" fill="none" fill-rule="evenodd" sketch:type="MSPage">
        <g id="bell-covering-hot-dish-copy-2" sketch:type="MSLayerGroup" fill="#FFFFFF">
            <g id="Group" sketch:type="MSShapeGroup">
                <path d="M62.4048878,28.2705882 C62.6790439,28.6936941 63.1395073,28.9240941 63.6093073,28.9240941 C63.8758244,28.9240941 64.1453122,28.8499765 64.3855171,28.6949647 C65.0492634,28.2663529 65.240239,27.3816 64.8107561,26.7183529 C64.7666195,26.6505882 60.3567805,19.6687059 64.0982049,14.9086588 C66.1662585,12.2776941 66.5274146,8.96357647 65.143478,5.32461176 C64.1550732,2.72583529 62.607322,0.862729412 62.5419659,0.7848 C62.0348195,0.179152941 61.1312927,0.0986823529 60.5244146,0.605223529 C59.9175366,1.11134118 59.8373268,2.01134118 60.3427756,2.61698824 C60.4123756,2.70127059 65.3204488,8.72089412 61.8438439,13.1442353 C56.8377366,19.5145412 62.1752927,27.9160941 62.4048878,28.2705882 L62.4048878,28.2705882 Z" id="Shape"></path>
                <path d="M72.0186,28.2705882 C72.2927561,28.6936941 72.7527951,28.9240941 73.2225951,28.9240941 C73.4891122,28.9240941 73.7586,28.8499765 73.9992293,28.6949647 C74.6634,28.2663529 74.8539512,27.3816 74.4244683,26.7183529 C74.3807561,26.6505882 69.9704927,19.6687059 73.7119171,14.9086588 C75.7799707,12.2776941 76.1411268,8.96357647 74.7571902,5.32461176 C73.768361,2.72583529 72.2206098,0.862729412 72.1552537,0.7848 C71.6485317,0.179152941 70.7445805,0.0986823529 70.1377024,0.605223529 C69.5316732,1.11091765 69.4506146,2.01091765 69.9560634,2.61656471 C70.0061415,2.67712941 74.9409512,8.712 71.4571317,13.1442353 C66.4510244,19.5145412 71.7890049,27.9160941 72.0186,28.2705882 L72.0186,28.2705882 Z" id="Shape"></path>
                <path d="M11.8757122,28.9329882 C12.1498683,29.3560941 12.6099073,29.5864941 13.0797073,29.5864941 C13.3462244,29.5864941 13.6157122,29.5123765 13.8559171,29.3573647 C14.5200878,28.9287529 14.710639,28.0435765 14.2807317,27.3807529 C14.2370195,27.3129882 9.8267561,20.3311059 13.5686049,15.5710588 C15.6366585,12.9400941 15.9978146,9.62597647 14.613878,5.98701176 C13.6250488,3.38823529 12.077722,1.52512941 12.0123659,1.4472 C11.5052195,0.841552941 10.6021171,0.761082353 9.99481463,1.26762353 C9.38878537,1.77331765 9.30772683,2.67331765 9.81317561,3.27896471 C9.86367805,3.33952941 14.7980634,9.3744 11.3146683,13.8066353 C6.3077122,20.1769412 11.6456927,28.5780706 11.8757122,28.9329882 L11.8757122,28.9329882 Z" id="Shape"></path>
                <path d="M21.489,28.9329882 C21.7631561,29.3560941 22.2231951,29.5864941 22.6929951,29.5864941 C22.9595122,29.5864941 23.229,29.5123765 23.4696293,29.3573647 C24.1338,28.9287529 24.3243512,28.0435765 23.8944439,27.3807529 C23.8507317,27.3129882 19.4408927,20.3311059 23.1823171,15.5710588 C25.2503707,12.9400941 25.6115268,9.62597647 24.2280146,5.98701176 C23.2396098,3.38823529 21.6918585,1.52512941 21.6265024,1.4472 C21.1193561,0.841552941 20.2162537,0.761082353 19.6089512,1.26762353 C19.002922,1.77331765 18.9218634,2.67331765 19.4273122,3.27896471 C19.4778146,3.33952941 24.4122,9.3744 20.9283805,13.8066353 C15.9214244,20.1769412 21.2594049,28.5780706 21.489,28.9329882 L21.489,28.9329882 Z" id="Shape"></path>
                <path d="M81.8580878,60.4855059 L78.819878,60.4855059 C78.106478,42.6536471 64.1139073,28.1744471 46.4643659,26.6455059 L46.4643659,25.1898353 C48.2565659,24.12 49.3693171,22.2022588 49.3693171,20.0702118 C49.3693171,16.7700706 46.6782585,14.0848941 43.3714098,14.0848941 L43.2419707,14.0848941 C39.9346976,14.0848941 37.2440634,16.7700706 37.2440634,20.0702118 C37.2440634,22.2022588 38.357239,24.1204235 40.1485902,25.1898353 L40.1485902,26.6455059 C22.4990488,28.1744471 8.50647805,42.6536471 7.79307805,60.4855059 L4.75486829,60.4855059 C2.13298537,60.4855059 0,62.6141647 0,65.2303059 L0,67.0176 C0,69.6358588 2.13298537,71.7653647 4.7544439,71.7653647 L81.8585122,71.7653647 C84.4803951,71.7653647 86.6129561,69.6358588 86.6129561,67.0176 L86.6129561,65.2303059 C86.6125317,62.6141647 84.4795463,60.4855059 81.8580878,60.4855059 L81.8580878,60.4855059 Z M40.1078488,20.0702118 C40.1078488,18.3464471 41.5134293,16.9437176 43.241122,16.9437176 L43.370561,16.9437176 C45.0982537,16.9437176 46.5038341,18.3464471 46.5038341,20.0702118 C46.5038341,21.3590118 45.7204098,22.4991529 44.5079268,22.9739294 C43.9596146,23.1886588 43.5993073,23.7168 43.5993073,24.3046588 L43.5993073,26.5116706 L43.0123756,26.5116706 L43.0123756,24.3046588 C43.0123756,23.7168 42.6516439,23.1890824 42.1037561,22.9739294 C40.8912732,22.4987294 40.1078488,21.3590118 40.1078488,20.0702118 L40.1078488,20.0702118 Z M83.7478976,67.0171765 C83.7478976,68.0586353 82.8999659,68.9061176 81.8580878,68.9061176 L4.75401951,68.9061176 C3.71171707,68.9061176 2.86420976,68.0586353 2.86420976,67.0171765 L2.86420976,65.2298824 C2.86420976,64.1901176 3.71214146,63.3443294 4.75401951,63.3443294 L7.10896098,63.3443294 C7.12211707,63.3447529 7.13442439,63.3464471 7.14758049,63.3464471 L58.5841024,63.3464471 C59.3747415,63.3464471 60.0164195,62.7064941 60.0164195,61.9170353 C60.0164195,61.128 59.3747415,60.4876235 58.5841024,60.4876235 L10.6615317,60.4876235 C11.4110049,43.2448941 25.6662732,29.4395294 43.1091366,29.3700706 L43.5029707,29.3700706 C60.9466829,29.4395294 75.200678,43.2448941 75.9505756,60.4876235 L67.8481171,60.4876235 C67.0570537,60.4876235 66.4158,61.128 66.4158,61.9170353 C66.4158,62.7064941 67.0570537,63.3464471 67.8481171,63.3464471 L78.909,63.3443294 L81.8576634,63.3443294 C82.8999659,63.3443294 83.7474732,64.1901176 83.7474732,65.2298824 L83.7474732,67.0171765 L83.7478976,67.0171765 Z" id="Shape"></path>
            </g>
        </g>
    </g>
</svg>