<?xml version="1.0" encoding="utf-8"?>
<!-- Generator: Adobe Illustrator 15.0.0, SVG Export Plug-In . SVG Version: 6.00 Build 0)  -->
<!DOCTYPE svg PUBLIC "-//W3C//DTD SVG 1.1//EN" "http://www.w3.org/Graphics/SVG/1.1/DTD/svg11.dtd">
<svg version="1.1" id="Layer_1" xmlns="http://www.w3.org/2000/svg" xmlns:xlink="http://www.w3.org/1999/xlink" x="0px" y="0px"
	 width="47.074px" height="39.5px" viewBox="0 0 47.074 39.5" enable-background="new 0 0 47.074 39.5" xml:space="preserve">
<g>
	<defs>
		<rect id="SVGID_1_" x="-470" y="-303" width="986" height="643"/>
	</defs>
	<clipPath id="SVGID_2_">
		<use xlink:href="#SVGID_1_"  overflow="visible"/>
	</clipPath>
	<g clip-path="url(#SVGID_2_)">
		<defs>
			<polyline id="SVGID_3_" points="-221,-49.937 -173.926,-49.937 -173.926,-10.963 -221,-10.963 			"/>
		</defs>
		<clipPath id="SVGID_4_">
			<use xlink:href="#SVGID_3_"  overflow="visible"/>
		</clipPath>
		<g clip-path="url(#SVGID_4_)" enable-background="new    ">
			<g>
				<defs>
					<rect id="SVGID_5_" x="-221" y="-50" width="48" height="40"/>
				</defs>
				<clipPath id="SVGID_6_">
					<use xlink:href="#SVGID_5_"  overflow="visible"/>
				</clipPath>
				<g clip-path="url(#SVGID_6_)">
					<defs>
						<path id="SVGID_7_" d="M-174.455-16.748l-18.962-30.605c0,0-1.774-2.584-4.475-2.584c-2.637,0-4.038,2.23-4.038,2.23
							l-18.345,30.722c0,0-1.069,1.713-0.61,3.543c0.424,1.695,2.591,2.444,2.591,2.444h40.106c0,0,1.596,0.371,3.125-1.28
							C-172.928-14.587-174.455-16.748-174.455-16.748 M-196.333-17.515c-0.458,0.407-0.99,0.61-1.601,0.61
							c-0.62,0-1.161-0.2-1.622-0.601c-0.464-0.399-0.695-0.961-0.695-1.684c0-0.632,0.222-1.166,0.664-1.607
							c0.441-0.444,0.983-0.664,1.623-0.664c0.642,0,1.188,0.22,1.639,0.664c0.452,0.441,0.678,0.976,0.678,1.607
							C-195.647-18.479-195.877-17.919-196.333-17.515 M-195.755-34.413l-0.654,7.515c-0.073,0.894-0.224,1.579-0.458,2.055
							c-0.232,0.479-0.62,0.718-1.159,0.718c-0.549,0-0.93-0.232-1.142-0.693s-0.366-1.166-0.456-2.113l-0.488-7.297
							c-0.092-1.422-0.139-2.442-0.139-3.062c0-0.844,0.222-1.503,0.664-1.977c0.441-0.471,1.024-0.708,1.744-0.708
							c0.874,0,1.459,0.303,1.752,0.908c0.295,0.605,0.444,1.476,0.444,2.613C-195.647-35.784-195.684-35.103-195.755-34.413"/>
					</defs>
					<clipPath id="SVGID_8_">
						<use xlink:href="#SVGID_7_"  overflow="visible"/>
					</clipPath>
					<g clip-path="url(#SVGID_8_)">
						<defs>
							<rect id="SVGID_9_" x="-221" y="-50" width="48" height="40"/>
						</defs>
						<clipPath id="SVGID_10_">
							<use xlink:href="#SVGID_9_"  overflow="visible"/>
						</clipPath>
						<rect x="-225.999" y="-54.938" clip-path="url(#SVGID_10_)" fill="#F08989" width="57.073" height="48.976"/>
					</g>
				</g>
			</g>
		</g>
	</g>
</g>
<g>
	<defs>
		<rect id="SVGID_11_" x="-470" y="-303" width="986" height="643"/>
	</defs>
	<clipPath id="SVGID_12_">
		<use xlink:href="#SVGID_11_"  overflow="visible"/>
	</clipPath>
	<g clip-path="url(#SVGID_12_)">
		<defs>
			<polyline id="SVGID_13_" points="-221,-49.937 -173.926,-49.937 -173.926,-10.963 -221,-10.963 			"/>
		</defs>
		<clipPath id="SVGID_14_">
			<use xlink:href="#SVGID_13_"  overflow="visible"/>
		</clipPath>
		<g clip-path="url(#SVGID_14_)" enable-background="new    ">
			<g>
				<defs>
					<rect id="SVGID_15_" x="-221" y="-50" width="48" height="40"/>
				</defs>
				<clipPath id="SVGID_16_">
					<use xlink:href="#SVGID_15_"  overflow="visible"/>
				</clipPath>
				<g clip-path="url(#SVGID_16_)">
					<defs>
						<path id="SVGID_17_" d="M-174.455-16.748l-18.962-30.605c0,0-1.774-2.584-4.475-2.584c-2.637,0-4.038,2.23-4.038,2.23
							l-18.345,30.722c0,0-1.069,1.713-0.61,3.543c0.424,1.695,2.591,2.444,2.591,2.444h40.106c0,0,1.596,0.371,3.125-1.28
							C-172.928-14.587-174.455-16.748-174.455-16.748 M-196.333-17.515c-0.458,0.407-0.99,0.61-1.601,0.61
							c-0.62,0-1.161-0.2-1.622-0.601c-0.464-0.399-0.695-0.961-0.695-1.684c0-0.632,0.222-1.166,0.664-1.607
							c0.441-0.444,0.983-0.664,1.623-0.664c0.642,0,1.188,0.22,1.639,0.664c0.452,0.441,0.678,0.976,0.678,1.607
							C-195.647-18.479-195.877-17.919-196.333-17.515 M-195.755-34.413l-0.654,7.515c-0.073,0.894-0.224,1.579-0.458,2.055
							c-0.232,0.479-0.62,0.718-1.159,0.718c-0.549,0-0.93-0.232-1.142-0.693s-0.366-1.166-0.456-2.113l-0.488-7.297
							c-0.092-1.422-0.139-2.442-0.139-3.062c0-0.844,0.222-1.503,0.664-1.977c0.441-0.471,1.024-0.708,1.744-0.708
							c0.874,0,1.459,0.303,1.752,0.908c0.295,0.605,0.444,1.476,0.444,2.613C-195.647-35.784-195.684-35.103-195.755-34.413"/>
					</defs>
					<clipPath id="SVGID_18_">
						<use xlink:href="#SVGID_17_"  overflow="visible"/>
					</clipPath>
					<g clip-path="url(#SVGID_18_)">
						<defs>
							<rect id="SVGID_19_" x="-221" y="-50" width="48" height="40"/>
						</defs>
						<clipPath id="SVGID_20_">
							<use xlink:href="#SVGID_19_"  overflow="visible"/>
						</clipPath>
						<rect x="-225.999" y="-54.938" clip-path="url(#SVGID_20_)" fill="#F08989" width="57.073" height="48.976"/>
					</g>
				</g>
			</g>
		</g>
	</g>
</g>
<g>
	<defs>
		<polyline id="SVGID_21_" points="0,0.063 47.074,0.063 47.074,39.037 0,39.037 		"/>
	</defs>
	<clipPath id="SVGID_22_">
		<use xlink:href="#SVGID_21_"  overflow="visible"/>
	</clipPath>
	<g clip-path="url(#SVGID_22_)" enable-background="new    ">
		<g>
			<defs>
				<rect id="SVGID_23_" width="48" height="40"/>
			</defs>
			<clipPath id="SVGID_24_">
				<use xlink:href="#SVGID_23_"  overflow="visible"/>
			</clipPath>
			<g clip-path="url(#SVGID_24_)">
				<defs>
					<path id="SVGID_25_" d="M46.545,33.252L27.583,2.646c0,0-1.774-2.584-4.475-2.584c-2.637,0-4.038,2.23-4.038,2.23L0.725,33.015
						c0,0-1.069,1.713-0.61,3.543c0.424,1.695,2.591,2.444,2.591,2.444h40.106c0,0,1.596,0.371,3.125-1.28
						C48.072,35.413,46.545,33.252,46.545,33.252 M24.667,32.485c-0.458,0.407-0.99,0.61-1.601,0.61c-0.62,0-1.161-0.2-1.622-0.601
						c-0.464-0.399-0.695-0.961-0.695-1.684c0-0.632,0.222-1.166,0.664-1.607c0.441-0.444,0.983-0.664,1.623-0.664
						c0.642,0,1.188,0.22,1.639,0.664c0.452,0.441,0.679,0.976,0.679,1.607C25.353,31.521,25.123,32.081,24.667,32.485
						 M25.245,15.587l-0.653,7.515c-0.073,0.894-0.225,1.579-0.459,2.055c-0.232,0.479-0.62,0.718-1.159,0.718
						c-0.549,0-0.93-0.232-1.142-0.693s-0.366-1.166-0.456-2.113l-0.488-7.297c-0.092-1.422-0.139-2.442-0.139-3.062
						c0-0.844,0.222-1.503,0.664-1.977c0.441-0.471,1.024-0.708,1.744-0.708c0.874,0,1.458,0.303,1.751,0.908
						c0.296,0.605,0.444,1.476,0.444,2.613C25.353,14.216,25.316,14.897,25.245,15.587"/>
				</defs>
				<clipPath id="SVGID_26_">
					<use xlink:href="#SVGID_25_"  overflow="visible"/>
				</clipPath>
				<g clip-path="url(#SVGID_26_)">
					<defs>
						<rect id="SVGID_27_" width="48" height="40"/>
					</defs>
					<clipPath id="SVGID_28_">
						<use xlink:href="#SVGID_27_"  overflow="visible"/>
					</clipPath>
					<rect x="-4.999" y="-4.938" clip-path="url(#SVGID_28_)" fill="#F08989" width="57.073" height="48.976"/>
				</g>
			</g>
		</g>
	</g>
</g>
</svg>
