<?xml version="1.0" encoding="UTF-8" standalone="no"?>
<svg width="127px" height="81px" viewBox="0 0 127 81" version="1.1" xmlns="http://www.w3.org/2000/svg" xmlns:xlink="http://www.w3.org/1999/xlink" xmlns:sketch="http://www.bohemiancoding.com/sketch/ns">
    <!-- Generator: Sketch 3.3.3 (12072) - http://www.bohemiancoding.com/sketch -->
    <title>Group Copy 33</title>
    <desc>Created with Sketch.</desc>
    <defs></defs>
    <g id="Page-1" stroke="none" stroke-width="1" fill="none" fill-rule="evenodd" sketch:type="MSPage">
        <g id="Group-Copy-33" sketch:type="MSLayerGroup">
            <path d="M1.53515625,81 L125.187524,81 C126.015951,81 126.687524,80.3284271 126.687524,79.5 C126.687524,78.6715729 126.015951,78 125.187524,78 L1.53515625,78 C0.706729125,78 0.03515625,78.6715729 0.03515625,79.5 C0.03515625,80.3284271 0.706729125,81 1.53515625,81 L1.53515625,81 Z" id="Shape" fill="#FFFFFF" sketch:type="MSShapeGroup"></path>
            <path d="M29.0556168,79.2617279 L36.6190933,19.2314544 L35.1308594,20.5439453 L92.2099871,20.5439453 L90.7241003,19.2492266 L98.8842304,78.3146563 C98.9976041,79.1352889 99.7547659,79.7086355 100.575399,79.5952618 C101.396031,79.4818881 101.969378,78.7247263 101.856004,77.9040937 L93.6958739,18.838664 L93.5170033,17.5439453 L92.2099871,17.5439453 L35.1308594,17.5439453 L33.8079919,17.5439453 L33.6426254,18.8564362 L26.0791488,78.8867096 C25.9755904,79.7086386 26.5579448,80.4588943 27.3798737,80.5624527 C28.2018026,80.6660111 28.9520584,80.0836568 29.0556168,79.2617279 L29.0556168,79.2617279 Z" id="Shape" fill="#FFFFFF" sketch:type="MSShapeGroup"></path>
            <path d="M32.7463816,31.291408 L62.3723582,61.5599627 L63.4336293,62.6442524 L64.5057293,61.5706687 L94.8475262,31.1868796 L92.7247394,29.0670267 L62.3829426,59.4508157 L64.5163137,59.4615217 L34.8903371,29.192967 L32.7463816,31.291408 L32.7463816,31.291408 Z" id="Shape" fill="#FFFFFF" sketch:type="MSShapeGroup"></path>
            <path d="M95.6137344,43.9852755 L112.781703,43.812424 L112.7515,40.812576 L95.5835312,40.9854276 L95.6137344,43.9852755 L95.6137344,43.9852755 Z" id="Shape" fill="#FFFFFF" sketch:type="MSShapeGroup"></path>
            <path d="M117.388019,2.15811639 L111.408526,41.6249133 L111.374983,41.8463116 L111.407563,42.0678538 L116.800141,78.7367991 C116.920675,79.5564108 117.682812,80.1231259 118.502424,80.0025929 C119.322036,79.8820598 119.888751,79.119922 119.768218,78.3003103 L114.37564,41.631365 L114.374677,42.0743055 L120.354169,2.60750861 C120.478265,1.78842887 119.91487,1.02383367 119.09579,0.899737432 C118.27671,0.775641196 117.512115,1.33903665 117.388019,2.15811639 L117.388019,2.15811639 Z" id="Shape" fill="#FFFFFF" sketch:type="MSShapeGroup"></path>
            <path d="M14.6137344,43.9852755 L31.7817032,43.812424 L31.7514999,40.812576 L14.5835312,40.9854276 L14.6137344,43.9852755 L14.6137344,43.9852755 Z" id="Shape" fill="#FFFFFF" sketch:type="MSShapeGroup"></path>
            <path d="M6.40852649,2.60750861 L12.3880187,42.0743055 L12.3870555,41.631365 L6.99447742,78.3003103 C6.87394437,79.119922 7.44065956,79.8820598 8.26027123,80.0025929 C9.07988289,80.1231259 9.84202077,79.5564108 9.96255383,78.7367991 L15.355132,42.0678538 L15.3877122,41.8463116 L15.3541688,41.6249133 L9.37467663,2.15811639 C9.25058039,1.33903665 8.48598519,0.775641196 7.66690545,0.899737432 C6.84782571,1.02383367 6.28443026,1.78842887 6.40852649,2.60750861 L6.40852649,2.60750861 Z" id="Shape" fill="#FFFFFF" sketch:type="MSShapeGroup"></path>
            <path d="M51,10.5 L51,18.6262893 C51,19.4547164 51.6715729,20.1262893 52.5,20.1262893 C53.3284271,20.1262893 54,19.4547164 54,18.6262893 L54,10.5 C54,9.67157288 53.3284271,9 52.5,9 C51.6715729,9 51,9.67157288 51,10.5 L51,10.5 Z" id="Shape" fill="#FFFFFF" sketch:type="MSShapeGroup"></path>
            <path d="M59,2 L59,3.50802265 C59,7.09344274 56.0825462,10 52.5,10 C48.9101491,10 46,7.09006342 46,3.50802265 L46,2 L59,2 Z" id="Rectangle-238" stroke="#FFFFFF" stroke-width="2" sketch:type="MSShapeGroup"></path>
            <path d="M80,2 L80,3.50802265 C80,7.09344274 77.0825462,10 73.5,10 C69.9101491,10 67,7.09006342 67,3.50802265 L67,2 L80,2 Z" id="Rectangle-238-Copy" stroke="#FFFFFF" stroke-width="2" sketch:type="MSShapeGroup"></path>
            <path d="M72,10.5 L72,18.6262893 C72,19.4547164 72.6715729,20.1262893 73.5,20.1262893 C74.3284271,20.1262893 75,19.4547164 75,18.6262893 L75,10.5 C75,9.67157288 74.3284271,9 73.5,9 C72.6715729,9 72,9.67157288 72,10.5 L72,10.5 Z" id="Shape" fill="#FFFFFF" sketch:type="MSShapeGroup"></path>
        </g>
    </g>
</svg>